<svg version="1.1" id="Layer_1" xmlns="http://www.w3.org/2000/svg" xmlns:xlink="http://www.w3.org/1999/xlink" x="0px" y="0px" viewBox="0 0 500 500" style="width: 188px;" xml:space="preserve" data-imageid="chart-2-21" imageName="Chart 2" class="illustrations_image">
<style type="text/css">
	.st0_chart-2-21{fill:#FFFFFF;}
	.st1_chart-2-21{fill:#093F68;}
	.st2_chart-2-21{fill:#F56132;}
	.st3_chart-2-21{fill:#FFBC0E;}
	.st4_chart-2-21{fill:#70CC40;}
	.st5_chart-2-21{fill:#DFEAEF;}
	.st6_chart-2-21{fill:#68E1FD;}
	.st7_chart-2-21{fill:#FFC9B0;}
	.st8_chart-2-21{fill:#725858;}
</style>
<g id="graph_chart-2-21">
	<path class="st0_chart-2-21" d="M454.2,177.2v158.4c0.1,4-3,7.3-7,7.4H246.9c-4-0.1-7.1-3.4-7-7.4V177.2c-0.1-4,3-7.3,7-7.4h200.3&#10;&#9;&#9;C451.2,169.9,454.3,173.2,454.2,177.2z"/>
	<path class="st1_chart-2-21" d="M447.2,344.8H246.9c-5-0.1-9-4.2-8.9-9.2V177.2c-0.1-5,3.9-9.1,8.9-9.2h200.3c5,0.1,8.9,4.2,8.9,9.2v158.4&#10;&#9;&#9;C456.1,340.6,452.2,344.7,447.2,344.8z M246.9,171.7c-3,0.1-5.3,2.6-5.2,5.5v158.4c-0.1,3,2.2,5.4,5.2,5.5h200.3&#10;&#9;&#9;c3-0.1,5.3-2.6,5.2-5.5V177.2c0.1-3-2.2-5.4-5.2-5.5L246.9,171.7z"/>
	<path class="st0_chart-2-21" d="M292.9,204.6H250c-1-0.1-1.8-1-1.7-2c0.1-0.9,0.8-1.6,1.7-1.7h42.9c1-0.1,1.9,0.7,2,1.7c0.1,1-0.7,1.9-1.7,2&#10;&#9;&#9;C293.1,204.6,293,204.6,292.9,204.6L292.9,204.6z"/>
	<path class="st0_chart-2-21" d="M271.4,225.5H250c-1-0.1-1.8-1-1.7-2c0.1-0.9,0.8-1.6,1.7-1.7h21.4c1-0.1,1.9,0.7,2,1.7c0.1,1-0.7,1.9-1.7,2&#10;&#9;&#9;C271.6,225.5,271.5,225.5,271.4,225.5L271.4,225.5z"/>
	<path class="st1_chart-2-21" d="M436,319.9H260.7c-1-0.1-1.8-1-1.7-2c0.1-0.9,0.8-1.6,1.7-1.7H436c1,0.1,1.8,1,1.7,2&#10;&#9;&#9;C437.6,319.1,436.9,319.8,436,319.9z"/>
	<rect x="278" y="266.2" class="st2_chart-2-21" width="35" height="51.9"/>
	<path class="st1_chart-2-21" d="M313,319.9h-35c-1,0-1.8-0.8-1.8-1.8c0,0,0,0,0,0v-51.9c0-1,0.8-1.8,1.8-1.8h35c1,0,1.8,0.8,1.8,1.8v51.9&#10;&#9;&#9;C314.8,319.1,314,319.9,313,319.9z M279.8,316.2h31.3V268h-31.3L279.8,316.2z"/>
	<rect x="329.8" y="257.9" class="st3_chart-2-21" width="35" height="60.1"/>
	<path class="st1_chart-2-21" d="M364.8,319.9h-35c-1,0-1.8-0.8-1.8-1.8c0,0,0,0,0,0v-60.1c0-1,0.8-1.8,1.8-1.8h35c1,0,1.8,0.8,1.8,1.8v60.1&#10;&#9;&#9;C366.6,319.1,365.8,319.9,364.8,319.9C364.8,319.9,364.8,319.9,364.8,319.9z M331.6,316.2H363v-56.5h-31.4V316.2z"/>
	<rect x="381.6" y="217.8" class="st4_chart-2-21" width="35" height="100.3"/>
	<path class="st1_chart-2-21" d="M416.6,319.9h-35c-1,0-1.8-0.8-1.8-1.8V217.8c0-1,0.8-1.8,1.8-1.8h35c1,0,1.8,0.8,1.8,1.8v100.3&#10;&#9;&#9;C418.4,319.1,417.6,319.9,416.6,319.9C416.6,319.9,416.6,319.9,416.6,319.9z M383.4,316.2h31.3v-96.6h-31.3V316.2z"/>
	<path class="st5_chart-2-21" d="M426,193.5h-46.1c-1,0-1.8-0.8-1.8-1.8c0-1,0.8-1.8,1.8-1.8H426c1,0,1.8,0.8,1.8,1.8&#10;&#9;&#9;C427.8,192.7,427,193.5,426,193.5z"/>
	<path class="st5_chart-2-21" d="M370.1,193.5h-19.4c-1,0-1.8-0.8-1.8-1.8c0-1,0.8-1.8,1.8-1.8c0,0,0,0,0,0h19.4c1,0,1.8,0.8,1.8,1.8&#10;&#9;&#9;C371.9,192.7,371.1,193.5,370.1,193.5z"/>
</g>
<g id="character_chart-2-21">
	<path class="st6_chart-2-21 targetColor" d="M216.9,354.6c-5.6,16.9-23.9,5.5-35.3-14.4v36.9H78.2L72.3,315c0-23.1,22.3-44.9,42.6-44.9H150&#10;&#9;&#9;c13.2,0,23.5,3.5,32.4,11C191.5,288.8,222.5,337.8,216.9,354.6z" style="fill: rgb(47, 47, 47);"/>
	<path class="st1_chart-2-21" d="M181.6,379H78.2c-0.9,0-1.7-0.7-1.8-1.7l-5.9-62.2c0-23.3,22.4-46.9,44.4-46.9H150c13.6,0,24.3,3.6,33.6,11.4&#10;&#9;&#9;c9.9,8.4,40.9,57.9,35.1,75.5l0,0c-2.4,7.2-6.7,9.1-9.9,9.4c-7.5,0.8-17.3-6.3-25.3-18v30.5C183.5,378.2,182.7,379,181.6,379&#10;&#9;&#9;C181.6,379,181.6,379,181.6,379z M79.9,375.3h99.9v-35c0-1,0.8-1.8,1.9-1.8c0.6,0,1.2,0.4,1.6,0.9c7.6,13.2,18.2,22.3,25.2,21.6&#10;&#9;&#9;c3.1-0.3,5.4-2.6,6.8-6.9c5.2-15.7-24.9-64-34-71.6c-8.6-7.2-18.5-10.6-31.2-10.6h-35c-20.2,0-40.8,21.7-40.8,43L79.9,375.3z&#10;&#9;&#9; M216.9,354.6L216.9,354.6z"/>
	<path class="st1_chart-2-21" d="M181.6,342.1c-1,0-1.8-0.8-1.8-1.8c0,0,0,0,0,0v-50.6c-0.1-1,0.7-1.9,1.7-2c1-0.1,1.9,0.7,2,1.7&#10;&#9;&#9;c0,0.1,0,0.2,0,0.3v50.6C183.5,341.3,182.6,342.1,181.6,342.1z"/>
	<path class="st6_chart-2-21 targetColor" d="M72.3,315c0,0-17.5,65.9,5,71c26.9,6.1,63.7-33.4,63.7-33.4l-10.5-23.4l-29,18.8l6.1-48.7" style="fill: rgb(47, 47, 47);"/>
	<path class="st1_chart-2-21" d="M83.3,388.5c-2.1,0-4.3-0.2-6.3-0.7c-3.7-0.9-6.8-3.2-8.6-6.5c-10.7-17.6,1.7-64.8,2.2-66.8&#10;&#9;&#9;c0.3-1,1.4-1.5,2.3-1.2c0.9,0.3,1.4,1.2,1.2,2.1c-0.1,0.5-12.5,47.6-2.7,63.9c1.3,2.4,3.6,4.2,6.3,4.8c23.4,5.3,55.6-26.3,61.1-32&#10;&#9;&#9;l-9.1-20.3l-27.2,17.6c-0.9,0.5-2,0.3-2.5-0.6c-0.2-0.4-0.3-0.8-0.3-1.2l6.1-48.7c0.1-1,1-1.7,2-1.6c1,0.1,1.7,1,1.6,2l-5.6,44.8&#10;&#9;&#9;l25.7-16.6c0.4-0.3,1-0.4,1.5-0.2c0.5,0.2,0.9,0.5,1.1,1l10.5,23.4c0.3,0.7,0.2,1.5-0.3,2C141,355.4,109.8,388.5,83.3,388.5z"/>
	<path class="st7_chart-2-21" d="M126.3,264.3l19.5-4.2l0,0l3.2,15c0.5,2.5-1,4.9-3.5,5.5l-10.5,2.3c-2.5,0.5-4.9-1-5.5-3.5L126.3,264.3&#10;&#9;&#9;L126.3,264.3z"/>
	<path class="st1_chart-2-21" d="M137,284.1c-4.8,0-9-3.4-10-8.1l-2.4-11.2c-0.1-0.5,0-1,0.2-1.4c0.3-0.4,0.7-0.7,1.2-0.8l19.5-4.2&#10;&#9;&#9;c1-0.2,2,0.4,2.2,1.4L150,271c1.2,5.6-2.3,11-7.9,12.2l-2.9,0.6C138.5,284,137.7,284.1,137,284.1z M128.5,265.8l2,9.4&#10;&#9;&#9;c0.8,3.6,4.3,5.8,7.9,5.1l2.9-0.6l0,0c3.6-0.8,5.8-4.3,5.1-7.9l-2-9.4L128.5,265.8z"/>
	
		<ellipse transform="matrix(0.9775 -0.2112 0.2112 0.9775 -38.0818 41.4736)" class="st7_chart-2-21" cx="175.2" cy="199.1" rx="14.9" ry="16.7"/>
	<path class="st1_chart-2-21" d="M175.9,217.5c-7.9,0-15.2-6.1-17.1-14.9c-2.2-10,3.4-19.7,12.5-21.7s18.1,4.6,20.3,14.6&#10;&#9;&#9;c1.1,4.7,0.3,9.6-2,13.8c-2.2,4-6,6.9-10.5,7.9C178,217.4,176.9,217.5,175.9,217.5z M174.5,184.3c-0.8,0-1.7,0.1-2.5,0.3&#10;&#9;&#9;c-7.1,1.5-11.4,9.3-9.7,17.3s8.9,13.3,15.9,11.8c3.5-0.8,6.4-3,8.1-6.1c1.9-3.4,2.5-7.4,1.6-11.2&#10;&#9;&#9;C186.4,189.2,180.7,184.3,174.5,184.3z"/>
	<path class="st7_chart-2-21" d="M52.7,170.1c2.6,16.5,7.6,45.4,16,59.2c14.3,23.8,42.6,43.1,67.7,37.7c21.9-4.7,36.3-20.4,41-39.9&#10;&#9;&#9;c2.2-9.5,2.3-19.3,0.1-28.8c0,0,0.3-7.1-6.7-32.9s-10.9-39.2-62.7-36.5C68.1,131.1,50.1,153.6,52.7,170.1z"/>
	<path class="st1_chart-2-21" d="M128.1,269.7c-19.7,0-44.7-12.5-61-39.4c-6.2-10.3-11.5-29.9-16.2-59.9c-1.1-7.3,1.4-15.1,7-22.1&#10;&#9;&#9;c5.8-7.2,20.1-19.5,50.1-21.1c53.6-2.9,57.5,11.6,64.6,37.8c6.4,23.4,6.8,31.6,6.8,33.2c2.1,9.7,2.1,19.7-0.2,29.4&#10;&#9;&#9;c-5.1,21.2-20.9,36.6-42.4,41.2C133.9,269.4,131,269.7,128.1,269.7z M120.6,130.5c-3.8,0-7.9,0.1-12.4,0.4&#10;&#9;&#9;c-20.9,1.2-38.2,8.3-47.4,19.7c-5,6.2-7.2,13-6.2,19.2l0,0c1.7,10.9,6.8,43.9,15.7,58.6c11.7,19.4,34.8,37.7,57.4,37.7&#10;&#9;&#9;c2.8,0,5.6-0.3,8.4-0.9c20-4.3,34.8-18.7,39.6-38.5c2.1-9.2,2.2-18.7,0.1-27.9c0-0.2,0-0.3,0-0.5c0-0.1,0.1-7.4-6.7-32.3&#10;&#9;&#9;C162.8,143,159.4,130.5,120.6,130.5L120.6,130.5z"/>
	<path class="st8_chart-2-21" d="M153.2,218.8c-7-0.9-16.4,1.8-24.8,8.4c-11,8.8-6.9,19.6-17.3,18.3c-7.2-0.9-14.7-4-19.9-9.1&#10;&#9;&#9;c-6.8-6.8-7.5-17.7-9.8-26.7c-0.8-3.2-1.6-6.5-3.5-9.1c-3.2-4.4-8.7-6.5-14-5.3c-18.1,4.3-6,27.5-2.4,38l7.9-1.7l1.2,6.5&#10;&#9;&#9;c14.3,23.8,40.7,34.4,65.8,28.9c21.9-4.7,36.3-20.4,41-39.9c-2.3,1-4.7,1.8-7.1,2.4c-6.9,1.8-4.6-5-11.3-8.9&#10;&#9;&#9;C157.2,219.6,155.3,219,153.2,218.8z"/>
	<path class="st1_chart-2-21" d="M123.2,270.2c-21.9,0-42.2-11.4-54.2-31.2c-0.1-0.2-0.2-0.4-0.2-0.6l-0.8-4.6l-6,1.3c-0.9,0.2-1.8-0.3-2.1-1.2&#10;&#9;&#9;c-0.5-1.4-1.1-3-1.8-4.8c-3.4-8.8-8.1-20.9-4-28.9c1.8-3.4,5-5.6,9.5-6.7c6-1.3,12.3,1,15.9,6c2.1,3,3,6.6,3.8,9.8&#10;&#9;&#9;c0.5,2,0.9,4.2,1.4,6.2c1.5,7.2,3,14.7,7.9,19.6c4.6,4.6,11.5,7.7,18.8,8.6c4.4,0.5,5.2-1.2,7-5.5c1.5-3.5,3.6-8.2,8.9-12.4&#10;&#9;&#9;c8.1-6.4,18.1-9.8,26.2-8.8l0,0c2.3,0.2,4.5,0.9,6.4,2.1c2.5,1.5,4.5,3.8,5.8,6.5c1.3,2.4,1.6,2.9,4.1,2.3c2.3-0.7,4.6-1.4,6.9-2.4&#10;&#9;&#9;c0.9-0.4,2,0.1,2.4,1c0.1,0.4,0.2,0.8,0.1,1.1c-5.1,21.2-20.9,36.6-42.4,41.3C132.3,269.7,127.8,270.2,123.2,270.2z M72.3,237.4&#10;&#9;&#9;c13.6,22.3,38.6,33.2,63.7,27.8c18.9-4.1,33.1-17.1,38.6-35.1c-1.5,0.5-2.8,0.9-3.9,1.2c-5.3,1.3-7-1.7-8.3-4.1&#10;&#9;&#9;c-0.9-2.1-2.5-3.8-4.4-5c-1.5-0.9-3.2-1.4-5-1.6l0,0c-7.1-0.9-16.1,2.2-23.4,8c-4.6,3.6-6.3,7.6-7.8,11c-1.9,4.4-3.8,8.5-10.9,7.7&#10;&#9;&#9;c-8.2-1-15.8-4.5-21-9.7c-5.7-5.7-7.4-13.7-9-21.4c-0.4-2.1-0.8-4.1-1.3-6.1c-0.8-3-1.5-6.1-3.2-8.5c-2.8-3.8-7.5-5.5-12.1-4.6&#10;&#9;&#9;c-3.5,0.8-5.8,2.4-7.1,4.8c-3.4,6.5,1,17.7,4.1,25.8c0.5,1.2,0.9,2.4,1.3,3.4l6.3-1.4c0.5-0.1,1,0,1.4,0.3c0.4,0.3,0.7,0.7,0.8,1.2&#10;&#9;&#9;L72.3,237.4z"/>
	
		<ellipse transform="matrix(0.9775 -0.2112 0.2112 0.9775 -39.1221 28.8932)" class="st1_chart-2-21" cx="115.7" cy="197.6" rx="5.4" ry="5.4"/>
	<circle class="st1_chart-2-21" cx="157.8" cy="186.3" r="5.4"/>
	<path class="st1_chart-2-21" d="M134.6,210.8c-1,0-1.9-0.7-1.9-1.8s0.7-1.9,1.8-1.9c0.1,0,7.3-0.7,12-2.6c-0.1-1.6-4.2-6.5-8.9-10.6&#10;&#9;&#9;c-0.8-0.6-1-1.8-0.4-2.6c0.6-0.8,1.8-1,2.6-0.4c0.1,0,0.1,0.1,0.2,0.2c3.3,2.8,10.8,9.9,10.1,14.1c-0.2,1.2-1,2.2-2.2,2.6&#10;&#9;&#9;c-5.2,2.1-12.8,2.8-13.1,2.9L134.6,210.8z"/>
	<path class="st1_chart-2-21" d="M95.8,188.9c-0.2,0-0.4,0-0.6,0c-2-0.3-3.4-2.2-3.1-4.2c0.1-0.4,1.7-10.2,13.6-12.6&#10;&#9;&#9;c11.3-2.3,16.7,2.4,17.2,2.9c1.5,1.4,1.5,3.7,0.1,5.2c-1.4,1.5-3.7,1.5-5.2,0.1l0,0c0,0-3.2-2.6-10.7-1c-6.9,1.4-7.8,6.5-7.8,6.5&#10;&#9;&#9;C99.1,187.6,97.6,188.9,95.8,188.9z"/>
	<path class="st1_chart-2-21" d="M148.3,175.8c-2,0-3.7-1.6-3.7-3.7c0-0.8,0.2-1.5,0.7-2.2c3.5-4.5,8.5-7.5,14.1-8.5c8.1-1.4,12.4,2.5,13.6,5&#10;&#9;&#9;l-6.6,3.2c0,0.1,0,0.1,0.1,0.2c-0.1-0.1-1.3-1.9-5.8-1.2c-3.7,0.7-7,2.7-9.4,5.6C150.5,175.2,149.4,175.7,148.3,175.8z"/>
	<path class="st7_chart-2-21" d="M72.7,210.6c0,0-16-6.6-20.9,7.4s7,33.7,28.7,22.5L72.7,210.6z"/>
	<path class="st1_chart-2-21" d="M68.4,245.7c-4.5,0-8.9-1.6-12.3-4.5c-6.5-5.6-9-15.4-6.1-23.8c1.1-3.9,3.9-7.1,7.6-8.9&#10;&#9;&#9;c7-3.2,15.3,0.2,15.7,0.4c0.5,0.2,0.9,0.7,1.1,1.2l7.9,29.9c0.2,0.8-0.2,1.7-0.9,2.1C77.4,244.3,73,245.5,68.4,245.7z M64.4,210.8&#10;&#9;&#9;c-1.8,0-3.6,0.3-5.2,1c-2.7,1.3-4.8,3.8-5.6,6.7c-2.4,6.9-0.3,15.2,5,19.8c5,4.4,12,4.7,19.8,1.1L71.2,212&#10;&#9;&#9;C69,211.3,66.7,210.9,64.4,210.8L64.4,210.8z"/>
	<path class="st0_chart-2-21" d="M135.7,237.4l19.6-4.5c0,0,1.7,16.5-6.2,19.2S135.7,237.4,135.7,237.4z"/>
	<path class="st1_chart-2-21" d="M147.4,254.2c-1.1,0-2.3-0.3-3.3-0.8c-6.1-3.1-9.8-14.2-10.2-15.5c-0.2-0.5-0.1-1,0.1-1.5&#10;&#9;&#9;c0.3-0.4,0.7-0.8,1.2-0.9l19.6-4.5c0.5-0.1,1.1,0,1.5,0.3c0.4,0.3,0.7,0.8,0.8,1.3c0.1,0.7,1.8,17.9-7.4,21.2&#10;&#9;&#9;C149,254.1,148.2,254.2,147.4,254.2z M138.1,238.7c1.4,3.7,4.3,9.8,7.7,11.5c0.8,0.5,1.8,0.5,2.7,0.2c4.6-1.6,5.3-10.2,5.1-15.2&#10;&#9;&#9;L138.1,238.7z"/>
	<path class="st8_chart-2-21" d="M109.3,142.5c3.3,8.1,3,17.3-0.9,25.1c16.6-3.9,29.8-16.7,34-33.2c4.7,6.4,8,13.8,9.6,21.6&#10;&#9;&#9;c10.5-1.6,22-7.9,23.1-18.4c0.8-7.3-4.1-14.3-10.3-18.2s-13.8-5-21.1-5.6c-25.1-1.9-50.4,2.1-73.7,11.7&#10;&#9;&#9;c-8.7,3.6-17.7,8.6-21.7,17.1c-3.6,7.6-2.5,16.6-1.3,25c1,7,2.5,23.2,10.1,26.7c6.8,3.1,16.1-5.1,21.1-9&#10;&#9;&#9;c7.2-5.5,13.5-12.1,18.9-19.4C99.6,162.3,111.1,147,109.3,142.5z"/>
	<path class="st1_chart-2-21" d="M60.4,196.8c-1.4,0-2.8-0.3-4.1-0.9c-7.7-3.5-9.6-17.4-10.8-25.7c-0.1-0.8-0.2-1.6-0.3-2.3&#10;&#9;&#9;c-1.4-9.2-2.3-18.1,1.5-26c4.5-9.5,14.5-14.6,22.7-18c23.6-9.8,49.1-13.9,74.5-11.9c7,0.6,15.1,1.7,21.9,5.8&#10;&#9;&#9;c7.6,4.6,12,12.4,11.2,19.9c-1.2,11.5-13.2,18.4-24.7,20.1c-1,0.1-1.9-0.5-2.1-1.5c-1.3-6.3-3.7-12.3-7.1-17.7&#10;&#9;&#9;c-5.4,15.5-18.3,27.1-34.3,30.8c-0.7,0.1-1.4-0.1-1.8-0.7c-0.4-0.6-0.5-1.3-0.2-1.9c2.6-5.2,3.5-11.1,2.7-16.8&#10;&#9;&#9;c-1.9,4-5.3,9.3-10.3,16.1l-0.6,0.8c-5.4,7.5-11.9,14.2-19.2,19.8l-1.6,1.3C73.1,191.6,66.5,196.8,60.4,196.8z M131.2,115.2&#10;&#9;&#9;c-20.8,0-41.3,4.1-60.5,12c-7.6,3.1-16.8,7.8-20.8,16.2c-3.3,7-2.4,15.3-1.1,23.9c0.1,0.7,0.2,1.5,0.3,2.4c1,7.1,2.8,20.2,8.7,22.9&#10;&#9;&#9;c5.1,2.4,12.9-3.8,17.6-7.5l1.6-1.2c7.1-5.4,13.3-11.8,18.5-19l0.6-0.8c11.9-16.2,11.8-20,11.5-20.8c-0.3-1,0.2-2,1.2-2.3&#10;&#9;&#9;c0.9-0.3,1.8,0.1,2.2,0.9l0,0c3,7.4,3.2,15.6,0.5,23.1c14.4-4.6,25.4-16.3,29.1-31c0.2-1,1.2-1.6,2.2-1.4c0.4,0.1,0.8,0.3,1,0.7&#10;&#9;&#9;c4.5,6.2,7.8,13.2,9.5,20.6c9.2-1.8,19-7.6,19.9-16.5c0.7-6.9-4.2-13.2-9.4-16.4c-6.1-3.7-13.7-4.8-20.3-5.3&#10;&#9;&#9;C139.4,115.4,135.3,115.2,131.2,115.2z"/>
	<path class="st3_chart-2-21" d="M136.1,284.2l9.2-0.7c1.2-0.1,2.3,0.8,2.4,2.1l0.5,7c0.1,1.2-0.8,2.3-2.1,2.4l-9.2,0.7&#10;&#9;&#9;c-1.2,0.1-2.3-0.8-2.4-2.1l-0.5-7C133.9,285.4,134.8,284.3,136.1,284.2z"/>
	<path class="st1_chart-2-21" d="M138.5,297.5c-3.1,0-5.7-2.4-5.9-5.5l-0.3-3.3c-0.2-3.3,2.2-6.1,5.5-6.4l5.4-0.4c3.3-0.3,6.1,2.2,6.4,5.5&#10;&#9;&#9;c0,0,0,0,0,0l0.3,3.3c0.2,3.3-2.2,6.1-5.5,6.4l-5.4,0.4C138.8,297.4,138.6,297.5,138.5,297.5z M143.7,285.5h-0.2l-5.4,0.4&#10;&#9;&#9;c-1.3,0.1-2.2,1.2-2.1,2.4c0,0,0,0,0,0l0.3,3.3c0.1,1.3,1.2,2.2,2.4,2.1c0,0,0,0,0,0l5.4-0.4l0,0c1.2-0.1,2.2-1.2,2.1-2.4l-0.2-3.3&#10;&#9;&#9;C145.9,286.4,144.9,285.5,143.7,285.5L143.7,285.5z"/>
	<polygon class="st3_chart-2-21" points="138.8,295.6 133.3,352.8 148.2,363.2 158.4,350.8 144.3,295.2 &#9;"/>
	<path class="st1_chart-2-21" d="M148.2,365c-0.4,0-0.7-0.1-1.1-0.3l-14.9-10.4c-0.5-0.4-0.8-1-0.8-1.7l5.6-57.1c0.1-0.9,0.8-1.6,1.7-1.6&#10;&#9;&#9;l5.4-0.4c0.9-0.1,1.7,0.5,1.9,1.4l14.1,55.6c0.1,0.6,0,1.2-0.4,1.6l-10.1,12.4C149.3,364.8,148.8,365,148.2,365z M135.2,351.9&#10;&#9;&#9;l12.7,8.8l8.5-10.3l-13.5-53.2l-2.4,0.2L135.2,351.9z"/>
	
		<rect x="167.2" y="288.3" transform="matrix(0.7377 -0.6751 0.6751 0.7377 -152.0342 203.9969)" class="st0_chart-2-21" width="38.7" height="18.8"/>
	<path class="st1_chart-2-21" d="M178.6,319.5c-0.5,0-1-0.2-1.4-0.6L164.6,305c-0.3-0.4-0.5-0.8-0.5-1.3c0-0.5,0.2-0.9,0.6-1.3l28.5-26.1&#10;&#9;&#9;c0.7-0.7,1.9-0.6,2.6,0.1c0,0,0,0,0,0l12.7,13.9c0.3,0.4,0.5,0.8,0.5,1.3c0,0.5-0.2,0.9-0.6,1.3L179.8,319&#10;&#9;&#9;C179.5,319.3,179.1,319.5,178.6,319.5z M168.5,303.9l10.2,11.1l25.8-23.6l-10.2-11.1L168.5,303.9z"/>
	
		<rect x="189.5" y="262.8" transform="matrix(0.7377 -0.6751 0.6751 0.7377 -132.3893 213.7088)" class="st0_chart-2-21" width="38.7" height="28.8"/>
	<path class="st1_chart-2-21" d="M204.3,302.8L204.3,302.8c-0.6,0-1-0.2-1.4-0.6l-19.4-21.3c-0.7-0.7-0.6-1.9,0.1-2.6l28.5-26.1&#10;&#9;&#9;c0.7-0.7,1.9-0.6,2.6,0.1c0,0,0,0,0,0l19.4,21.2c0.7,0.8,0.6,1.9-0.1,2.6l-28.5,26.1C205.2,302.6,204.8,302.8,204.3,302.8z&#10;&#9;&#9; M187.5,279.8l17,18.5l25.8-23.6l-17-18.5L187.5,279.8z"/>
	<path class="st0_chart-2-21" d="M169,299.1l14.6,16c1.3,1.5,1.2,3.7-0.2,5l-60.1,55c-1.5,1.3-3.7,1.2-5-0.2l-14.6-16c-1.3-1.5-1.2-3.7,0.2-5&#10;&#9;&#9;l60.1-55C165.4,297.5,167.6,297.6,169,299.1z"/>
	<path class="st1_chart-2-21" d="M121.1,376.6c-2.4,0-4.6-1-6.2-2.7l0,0l-10.6-11.6c-3.1-3.4-2.9-8.7,0.5-11.8l55.7-51&#10;&#9;&#9;c3.4-3.1,8.7-2.9,11.8,0.5l10.6,11.6c3.1,3.4,2.9,8.7-0.5,11.8l-55.7,51C125.2,375.9,123.1,376.6,121.1,376.6z M166.1,301&#10;&#9;&#9;c-1.2,0-2.3,0.4-3.2,1.2l-55.7,51c-1.9,1.8-2,4.7-0.3,6.6l10.6,11.6l0,0c1.8,1.9,4.7,2,6.6,0.3l55.7-51c1.9-1.8,2-4.7,0.3-6.6&#10;&#9;&#9;l-10.6-11.6C168.7,301.5,167.4,301,166.1,301z"/>
	<path class="st0_chart-2-21" d="M207.1,278.8c25.2,27.6,68.1,29.5,95.7,4.3c27.6-25.2,29.5-68.1,4.3-95.7s-68.1-29.5-95.7-4.3c0,0,0,0,0,0&#10;&#9;&#9;C183.8,208.4,181.9,251.2,207.1,278.8z"/>
	<path class="st1_chart-2-21" d="M257.1,302.8c-19.6,0-38.3-8.2-51.5-22.6l0,0c-26.1-28.4-24.1-72.6,4.3-98.6s72.6-24.1,98.6,4.3&#10;&#9;&#9;s24.1,72.6-4.3,98.6C291.4,296.2,274.6,302.8,257.1,302.8z M208.6,277.5c24.5,26.8,66.1,28.6,92.9,4.1&#10;&#9;&#9;c26.8-24.5,28.6-66.1,4.1-92.9s-66.1-28.6-92.9-4.1c0,0,0,0,0,0C186,209.2,184.1,250.7,208.6,277.5z"/>
	<ellipse class="st6_chart-2-21 targetColor" cx="257.1" cy="233.1" rx="46.5" ry="46.5" style="fill: rgb(47, 47, 47);"/>
	<path class="st1_chart-2-21" d="M257.1,281.5h-0.8c-27.3-0.2-49.2-22.5-48.9-49.8c0.2-27.3,22.5-49.2,49.8-48.9c27.3,0.2,49.2,22.5,48.9,49.8&#10;&#9;&#9;C305.8,259.5,284,281.3,257.1,281.5z M257.1,188.4c-24.4,0-44.3,19.6-44.7,44l0,0c-0.4,24.7,19.3,45,44,45.4&#10;&#9;&#9;c24.7,0.4,45-19.3,45.4-44c0.4-24.7-19.3-45-44-45.4H257.1z M210.6,232.3L210.6,232.3z"/>
	<path class="st0_chart-2-21" d="M237.1,261L237.1,261c-0.8,0-1.4-0.4-1.7-1.1l-10.3-22.4l-5.7,7.2c-0.6,0.8-1.7,1-2.6,0.5&#10;&#9;&#9;c-0.8-0.6-1-1.7-0.5-2.6c0-0.1,0.1-0.1,0.1-0.2l7.6-9.5c0.6-0.8,1.8-0.9,2.6-0.3c0.2,0.2,0.4,0.4,0.5,0.7l10.1,22l22.1-37.1&#10;&#9;&#9;c0.3-0.5,0.8-0.8,1.4-0.9c0.6-0.1,1.1,0.1,1.5,0.5l13.4,13.7l17.4-20.6c0.7-0.8,1.8-0.9,2.6-0.2c0.8,0.7,0.9,1.8,0.2,2.6l0,0&#10;&#9;&#9;l-18.7,22.2c-0.3,0.4-0.8,0.6-1.3,0.7c-0.5,0-1-0.2-1.4-0.6l-13.1-13.5l-22.6,38.1C238.4,260.7,237.7,261.1,237.1,261z"/>
	<path class="st7_chart-2-21" d="M111.5,341.5c1.5-3.9,4-7.3,7.3-9.9c2.1-1.3,4.3-2.4,6.6-3.1c5.3-2,11-2.9,16.7-2.6c2.4,0.1,4.5,1.3,5.9,3.2&#10;&#9;&#9;c0.7,0.9,0.9,2.1,0.5,3.2c-0.6,1.7-2.8,2.2-4.6,2.5c-4.2,0.5-8.4,0.5-12.5,0.1c2.7,0.2,5.4,0.9,7.9,2c1.4,0.6,3,2.2,2.1,3.4&#10;&#9;&#9;c-0.5,0.6-1.2,0.9-2,0.9c-3.8,0.4-7.6-0.2-11-1.8c2,0.6,3.7,1.8,4.9,3.5c0.4,0.4,0.6,1,0.6,1.6c0,1.8-2.5,2.2-4.3,2.1L123,346&#10;&#9;&#9;c1.9-0.1,3.7,0.3,5.4,1.1c1.6,1,2.7,3.1,1.9,4.8c-0.7,1.4-2.3,2-3.8,2.3c-5.5,1.1-13.8,0.1-15.7-6.4&#10;&#9;&#9;C110.4,345.7,110.6,343.5,111.5,341.5z"/>
	<path class="st1_chart-2-21" d="M122.6,356.5c-5.5,0-11.7-2-13.5-8.1c-0.6-2.5-0.4-5.1,0.6-7.5l0,0c1.6-4.2,4.4-8,8-10.7&#10;&#9;&#9;c2.2-1.4,4.6-2.5,7.1-3.3c5.6-2.1,11.5-3,17.5-2.7c2.9,0.1,5.6,1.6,7.3,4c1,1.4,1.3,3.2,0.7,4.9c-1.1,3-4.9,3.5-6.1,3.6&#10;&#9;&#9;c-0.6,0.1-1.2,0.1-1.9,0.2c0.5,0.5,0.9,1.1,1.1,1.8c0.3,0.9,0.1,2-0.5,2.8c-0.8,1-2,1.6-3.3,1.6c-1.4,0.1-2.7,0.2-4.1,0.1&#10;&#9;&#9;c0.2,0.4,0.3,0.9,0.3,1.4c0,1-0.4,1.9-1.1,2.6c-0.8,0.7-1.8,1.1-2.8,1.2c0.7,1.4,0.8,3,0.1,4.5c-0.8,1.7-2.5,2.8-5,3.3&#10;&#9;&#9;C125.6,356.3,124.1,356.5,122.6,356.5z M140,327.7c-4.8,0.1-9.5,1-13.9,2.6c-2.2,0.7-4.3,1.6-6.2,2.9c-3,2.4-5.3,5.5-6.7,9l0,0&#10;&#9;&#9;c-0.7,1.6-0.9,3.4-0.5,5.2c1.6,5.4,9.2,6,13.6,5.1c1.4-0.3,2.2-0.7,2.5-1.3s-0.2-1.8-1.2-2.4c-0.7-0.4-1.5-0.6-2.3-0.7l-2.3-0.2&#10;&#9;&#9;c-1-0.1-1.8-0.9-1.7-1.9c0-1,0.9-1.8,1.9-1.7c0,0,0,0,0,0c0.8,0,1.6,0.1,2.5,0.2l4.3,0.3c0.8,0.1,1.6,0,2.3-0.4&#10;&#9;&#9;c-0.1-0.1-0.2-0.3-0.3-0.4c-0.6-0.9-1.4-1.6-2.4-2.1c-0.6-0.2-1.2-0.5-1.8-0.7c-0.9-0.4-1.3-1.5-0.9-2.4c0.4-0.8,1.3-1.3,2.2-1&#10;&#9;&#9;c0.7,0.2,1.4,0.5,2,0.8c2.7,0.9,5.5,1.2,8.3,0.9c0.1,0,0.2,0,0.4,0c-0.3-0.3-0.6-0.5-1-0.7c-2.1-0.9-4.4-1.6-6.7-1.8l-0.6,0&#10;&#9;&#9;c-1-0.1-1.7-1.1-1.6-2.1c0.1-0.9,1-1.6,1.9-1.6l0.6,0.1c3.8,0.3,7.7,0.3,11.5-0.2c1.7-0.2,2.8-0.7,3.1-1.3c0.1-0.6,0-1.1-0.4-1.6&#10;&#9;&#9;c-1.1-1.4-2.7-2.3-4.5-2.3C141.4,327.7,140.7,327.7,140,327.7z M111.5,341.5L111.5,341.5z"/>
	<path class="st1_chart-2-21" d="M88.9,356.4c-1,0-1.8-0.8-1.8-1.8c0-0.7,0.4-1.3,1-1.6l12.7-6.5c0.9-0.4,2,0,2.4,0.9c0.4,0.9,0.1,1.9-0.8,2.4&#10;&#9;&#9;l-12.7,6.5C89.5,356.3,89.2,356.4,88.9,356.4z"/>
	<path class="st7_chart-2-21" d="M188.2,296c0.5-0.9,1.7-1.8,2.4-1c0.2,0.3,0.3,0.6,0.4,1l0.7,4.4c0.1-3.1,1-6.1,2.4-8.9&#10;&#9;&#9;c0.3-0.6,0.7-1.1,1.2-1.5c1.2-0.5,2.6-0.2,3.3,0.9c0.7,1,1.2,2.2,1.4,3.5c0.6-1.5,0.4-3.2,0.8-4.8s1.7-3.2,3.3-3s2.2,2,2.6,3.4&#10;&#9;&#9;c0.5-0.6,0.9-1.4,1-2.2c0.2-0.8,0.8-1.6,1.6-1.5s1.1,0.8,1.3,1.5c2.2,5.9,1.9,12.4-0.8,18c-3.3,6.3-11.9,11.7-19,8.5&#10;&#9;&#9;C184.8,311.7,185.5,300.8,188.2,296z"/>
	<path class="st1_chart-2-21" d="M195.3,317.2c-1.8,0-3.6-0.4-5.3-1.1c-2.4-1.2-4.1-3.3-4.8-5.8c-1.4-5-0.9-10.4,1.4-15.1c0.6-1.2,1.7-2,3-2.2&#10;&#9;&#9;c0.6-0.1,1.2,0,1.7,0.3c0.3-0.9,0.7-1.7,1.2-2.6c0.4-0.9,1.1-1.6,1.9-2.2c1.5-0.8,3.4-0.7,4.7,0.4c0.7-2.4,2.8-4.5,5.3-4&#10;&#9;&#9;c0.8,0.1,1.6,0.5,2.2,1.1c0.6-1,1.8-1.5,2.9-1.4c1.3,0.2,2.2,1.1,2.8,2.7c2.4,6.3,2.1,13.4-0.9,19.5&#10;&#9;&#9;C208.3,312.5,201.8,317.2,195.3,317.2z M189.4,297.8c-1.5,3.6-1.7,7.6-0.7,11.4c0.4,1.6,1.4,2.9,2.9,3.6c6,2.7,13.6-1.9,16.6-7.7&#10;&#9;&#9;c2.4-4.9,2.7-10.5,1-15.7c-0.2,0.8-0.7,1.6-1.3,2.1c-0.5,0.4-1.1,0.5-1.7,0.3c-0.6-0.2-1.1-0.7-1.2-1.3c-0.4-1.5-0.9-2.1-1.2-2.1&#10;&#9;&#9;s-1,0.6-1.2,1.5c-0.1,0.6-0.2,1.2-0.2,1.7c0,1.1-0.3,2.3-0.6,3.3c-0.3,0.7-1,1.2-1.9,1.1c-0.8-0.1-1.5-0.6-1.6-1.4&#10;&#9;&#9;c-0.1-1-0.5-1.9-1-2.7c-0.2-0.3-0.6-0.5-1-0.5c-0.2,0.2-0.4,0.5-0.5,0.8c-1.3,2.5-2.1,5.2-2.2,8.1c-0.1,1-0.9,1.8-2,1.7&#10;&#9;&#9;c-0.9-0.1-1.6-0.7-1.7-1.5L189.4,297.8z M188.2,296.1L188.2,296.1z"/>
	<path class="st1_chart-2-21" d="M186.5,336.8c-1,0-1.8-0.7-1.8-1.7c-0.7-9.4,1.5-20.1,1.6-20.5c0.2-1,1.1-1.7,2.1-1.5s1.7,1.1,1.5,2.1&#10;&#9;&#9;c0,0.1,0,0.1,0,0.2c0,0.1-2.2,10.6-1.5,19.5c0.1,1-0.7,1.9-1.7,2c0,0,0,0,0,0L186.5,336.8z"/>
</g>
</svg>